<svg width="100" height="100" viewBox="0 0 100 100" fill="none" xmlns="http://www.w3.org/2000/svg">
  <!-- Gradient Definitions -->
  <defs>
    <linearGradient id="grad1" x1="0%" y1="0%" x2="100%" y2="100%">
      <stop offset="0%" style="stop-color:#3B82F6;stop-opacity:1" />
      <stop offset="100%" style="stop-color:#8B5CF6;stop-opacity:1" />
    </linearGradient>
    <linearGradient id="grad2" x1="0%" y1="0%" x2="100%" y2="100%">
      <stop offset="0%" style="stop-color:#06B6D4;stop-opacity:1" />
      <stop offset="100%" style="stop-color:#3B82F6;stop-opacity:1" />
    </linearGradient>
  </defs>

  <!-- Background Circle -->
  <circle cx="50" cy="50" r="48" fill="url(#grad1)" opacity="0.1"/>

  <!-- Document Base -->
  <path
    d="M30 20 L55 20 L70 35 L70 80 L30 80 Z"
    fill="url(#grad1)"
    opacity="0.9"
  />

  <!-- Document Fold -->
  <path
    d="M55 20 L55 35 L70 35 Z"
    fill="url(#grad2)"
    opacity="0.7"
  />

  <!-- AI Sparkles -->
  <circle cx="42" cy="45" r="2.5" fill="#FBBF24" opacity="0.9"/>
  <circle cx="50" cy="38" r="2" fill="#FBBF24" opacity="0.8"/>
  <circle cx="58" cy="52" r="2.5" fill="#FBBF24" opacity="0.9"/>

  <!-- Lightning Bolt -->
  <path
    d="M48 55 L52 50 L50 50 L53 43 L49 48 L51 48 Z"
    fill="#FBBF24"
    opacity="0.95"
  />

  <!-- Document Lines -->
  <line x1="38" y1="58" x2="62" y2="58" stroke="white" stroke-width="2" opacity="0.6"/>
  <line x1="38" y1="64" x2="58" y2="64" stroke="white" stroke-width="2" opacity="0.6"/>
  <line x1="38" y1="70" x2="60" y2="70" stroke="white" stroke-width="2" opacity="0.6"/>
</svg>
